<svg width="105" height="105" viewBox="0 0 105 105" fill="none" xmlns="http://www.w3.org/2000/svg">
<g clip-path="url(#clip0_1_373)">
<rect width="6" height="6" fill="#505960"/>
<rect x="99" y="99" width="6" height="6" fill="#505960"/>
<g filter="url(#filter0_d_1_373)">
<rect width="160" height="41.39" transform="translate(27.0701 -29.51) rotate(45)" fill="#505960"/>
<path d="M52.0802 18.4158L56.0014 14.4945L57.5485 16.0416C57.8459 16.339 58.0425 16.6492 58.1382 16.9721C58.2352 17.2938 58.2384 17.6097 58.1478 17.9199C58.0597 18.2301 57.8855 18.5153 57.6251 18.7757C57.3647 19.0361 57.0788 19.2097 56.7673 19.2965C56.4559 19.3833 56.138 19.3757 55.8138 19.2735C55.4909 19.1727 55.1788 18.9717 54.8775 18.6704L53.8915 17.6844L54.5559 17.02L55.4079 17.872C55.5675 18.0316 55.7264 18.1356 55.8847 18.1841C56.0455 18.2326 56.2006 18.2332 56.3499 18.186C56.5018 18.1388 56.6422 18.0507 56.7711 17.9218C56.9013 17.7916 56.9888 17.6518 57.0335 17.5025C57.0807 17.3531 57.0788 17.1993 57.0277 17.041C56.9779 16.8815 56.8726 16.7213 56.7118 16.5605L56.1527 16.0014L52.9093 19.2448L52.0802 18.4158ZM61.1351 23.5495C60.7075 23.9771 60.2627 24.2598 59.8006 24.3977C59.3398 24.5368 58.8912 24.5464 58.4546 24.4264C58.0206 24.3064 57.6307 24.0734 57.2848 23.7275C56.9363 23.3791 56.7027 22.9872 56.584 22.5519C56.4653 22.1167 56.4755 21.6686 56.6146 21.2078C56.7538 20.747 57.0365 20.3035 57.4628 19.8771C57.8904 19.4495 58.3346 19.1662 58.7954 19.027C59.2562 18.8879 59.7036 18.8783 60.1376 18.9983C60.5729 19.117 60.9647 19.3506 61.3132 19.6991C61.6591 20.045 61.8914 20.4356 62.0101 20.8709C62.1314 21.3061 62.1225 21.7542 61.9833 22.2149C61.8455 22.677 61.5627 23.1219 61.1351 23.5495ZM60.2946 22.7089C60.5716 22.4319 60.7637 22.1569 60.8709 21.8837C60.9794 21.6118 61.0081 21.3521 60.9571 21.1044C60.906 20.8568 60.7803 20.6328 60.5799 20.4324C60.3795 20.232 60.1555 20.1063 59.9078 20.0552C59.6602 20.0041 59.3998 20.0322 59.1267 20.1395C58.8548 20.2479 58.5803 20.4407 58.3034 20.7177C58.0264 20.9947 57.8336 21.2691 57.7251 21.541C57.6179 21.8141 57.5898 22.0745 57.6409 22.3222C57.6919 22.5698 57.8177 22.7938 58.0181 22.9942C58.2185 23.1946 58.4425 23.3203 58.6901 23.3714C58.9377 23.4225 59.1975 23.3937 59.4694 23.2852C59.7425 23.178 60.0176 22.9859 60.2946 22.7089ZM60.5239 26.8594L63.3231 21.8162L64.2288 22.7219L62.1533 26.0955L62.1858 26.128L65.6265 24.1196L66.4019 24.895L64.3858 28.3395L64.4202 28.3739L67.7996 26.2927L68.7052 27.1983L63.662 29.9976L62.854 29.1896L64.671 25.8791L64.6404 25.8485L61.3319 27.6674L60.5239 26.8594ZM65.2277 31.5633L69.149 27.6421L71.7912 30.2843L71.1077 30.9678L69.2945 29.1546L68.3601 30.089L70.0374 31.7662L69.3538 32.4498L67.6766 30.7725L66.7403 31.7088L68.5612 33.5296L67.8776 34.2132L65.2277 31.5633ZM68.5291 34.8646L72.4503 30.9434L73.9974 32.4905C74.2935 32.7866 74.4933 33.0923 74.5967 33.4076C74.7026 33.7229 74.7141 34.0318 74.6311 34.3343C74.5507 34.6368 74.3809 34.9176 74.1218 35.1767C73.8614 35.4371 73.5812 35.605 73.2813 35.6803C72.9826 35.7543 72.6769 35.7345 72.3642 35.6209C72.0527 35.5086 71.7464 35.3018 71.4451 35.0006L70.4093 33.9648L71.0756 33.2985L71.9774 34.2003C72.1357 34.3585 72.2888 34.4683 72.4369 34.5296C72.585 34.5909 72.7279 34.6036 72.8658 34.5679C73.0049 34.5334 73.139 34.4517 73.2679 34.3228C73.3981 34.1926 73.4817 34.0567 73.5187 33.915C73.557 33.7746 73.5461 33.6284 73.4862 33.4765C73.4287 33.3246 73.3202 33.1689 73.1607 33.0093L72.6016 32.4503L69.3581 35.6937L68.5291 34.8646ZM72.4312 35.1978L71.6213 37.9568L70.7061 37.0416L71.537 34.3037L72.4312 35.1978ZM72.0674 38.4029L75.9886 34.4817L78.6309 37.124L77.9473 37.8075L76.1341 35.9943L75.1998 36.9287L76.877 38.6059L76.1935 39.2894L74.5162 37.6122L73.58 38.5485L75.4008 40.3693L74.7173 41.0528L72.0674 38.4029ZM76.7588 43.0943L75.3687 41.7043L79.29 37.7831L80.6915 39.1846C81.0859 39.579 81.347 39.9971 81.4746 40.4387C81.6035 40.8791 81.5984 41.322 81.4593 41.7675C81.3214 42.2142 81.0489 42.6412 80.6417 43.0484C80.2333 43.4569 79.805 43.7307 79.357 43.8698C78.9102 44.0102 78.4648 44.0153 78.0206 43.8851C77.5776 43.7562 77.157 43.4926 76.7588 43.0943ZM76.9081 41.823L77.4347 42.3495C77.6797 42.5946 77.9293 42.7574 78.1833 42.8378C78.4399 42.9182 78.7022 42.9086 78.9702 42.8091C79.2408 42.7095 79.5223 42.5136 79.8146 42.2213C80.1043 41.9315 80.2984 41.652 80.3966 41.3826C80.4962 41.1146 80.5058 40.8536 80.4254 40.5995C80.345 40.3455 80.1822 40.096 79.9371 39.8509L79.4087 39.3225L76.9081 41.823ZM80.5393 46.8749L84.4605 42.9536L86.0305 44.5236C86.319 44.8121 86.5169 45.0955 86.6241 45.3738C86.7313 45.652 86.7575 45.9156 86.7026 46.1645C86.649 46.4121 86.5239 46.6342 86.3273 46.8308C86.1741 46.984 86.0088 47.088 85.8314 47.1429C85.6553 47.1965 85.4766 47.2067 85.2953 47.1735C85.1166 47.1404 84.9437 47.0708 84.7764 46.9648L84.7382 47.0031C84.8811 47.1589 84.9788 47.3408 85.0311 47.5488C85.0847 47.7582 85.0822 47.9739 85.0234 48.196C84.966 48.4168 84.8409 48.6236 84.6482 48.8163C84.4401 49.0244 84.2027 49.1584 83.9359 49.2184C83.6717 49.2784 83.3921 49.2554 83.0973 49.1495C82.8024 49.0435 82.5082 48.8438 82.2146 48.5502L80.5393 46.8749ZM82.0461 47.0261L82.722 47.702C82.953 47.933 83.1656 48.0575 83.3596 48.0753C83.5549 48.0919 83.7266 48.0262 83.8746 47.8781C83.9831 47.7696 84.0527 47.6477 84.0833 47.5124C84.114 47.3771 84.1044 47.2374 84.0546 47.0931C84.0061 46.9502 83.9155 46.8123 83.7827 46.6796L83.0877 45.9845L82.0461 47.0261ZM83.6487 45.4235L84.2633 46.0381C84.3769 46.1517 84.4975 46.2328 84.6252 46.2813C84.7554 46.3298 84.883 46.3426 85.0081 46.3196C85.1345 46.2979 85.2494 46.2354 85.3528 46.132C85.4944 45.9903 85.5583 45.8256 85.5442 45.638C85.5315 45.4516 85.4332 45.2665 85.2494 45.0827L84.6194 44.4528L83.6487 45.4235ZM87.7954 46.2885L88.724 47.2171L87.9294 49.8L87.9677 49.8383L90.5506 49.0437L91.4792 49.9723L87.5139 51.0771L86.1277 52.4633L85.3044 51.64L86.6906 50.2538L87.7954 46.2885Z" fill="#F2F2F2"/>
<path d="M49.8567 29.3345L48.4372 27.915C48.595 27.7054 48.7051 27.4894 48.7678 27.2669C48.8326 27.0422 48.8531 26.8164 48.8294 26.5895C48.8056 26.3627 48.7386 26.1401 48.6284 25.9219C48.5204 25.7059 48.3713 25.5028 48.1812 25.3127C47.8377 24.9691 47.4531 24.7552 47.0275 24.671C46.604 24.5845 46.16 24.6332 45.6955 24.8168C45.2332 24.9983 44.7719 25.3191 44.3117 25.7793C43.8385 26.2525 43.5112 26.7202 43.3297 27.1826C43.1504 27.6471 43.1061 28.0889 43.1969 28.5081C43.2876 28.9272 43.5004 29.3042 43.8353 29.6391C44.0233 29.8271 44.222 29.9762 44.4316 30.0864C44.6433 30.1987 44.8594 30.27 45.0798 30.3002C45.3023 30.3283 45.5238 30.3143 45.7441 30.2581C45.9667 30.2041 46.1827 30.1047 46.3923 29.96L47.8053 31.3859C47.4639 31.6538 47.0783 31.8558 46.6483 31.9919C46.2227 32.1281 45.7755 32.1842 45.3066 32.1605C44.8421 32.1367 44.3754 32.02 43.9066 31.8105C43.4421 31.6009 42.997 31.2833 42.5714 30.8577C41.9794 30.2657 41.584 29.6024 41.3853 28.8678C41.1886 28.1354 41.2092 27.3803 41.4468 26.6025C41.6866 25.8269 42.1674 25.0782 42.889 24.3566C43.6128 23.6328 44.3646 23.1532 45.1446 22.9177C45.9245 22.6822 46.6807 22.6649 47.4131 22.8658C48.1477 23.0646 48.8067 23.4557 49.39 24.039C49.7746 24.4236 50.0771 24.8341 50.2975 25.2705C50.52 25.7091 50.655 26.1596 50.7026 26.6219C50.7523 27.0821 50.708 27.5412 50.5697 27.9993C50.4336 28.4595 50.1959 28.9045 49.8567 29.3345ZM47.849 36.1418C47.5314 35.8242 47.3035 35.4861 47.1652 35.1274C47.0291 34.7666 46.9978 34.4047 47.0712 34.0418C47.149 33.6788 47.3521 33.3331 47.6805 33.0047C47.9571 32.7281 48.2401 32.5467 48.5296 32.4602C48.8191 32.3738 49.1086 32.3609 49.3981 32.4214C49.6876 32.4818 49.9728 32.5942 50.2537 32.7584C50.5367 32.9248 50.8133 33.1192 51.0834 33.3417C51.4031 33.601 51.6645 33.8063 51.8676 33.9575C52.0729 34.1066 52.2425 34.1941 52.3764 34.22C52.5104 34.2459 52.6303 34.206 52.7362 34.1001L52.7556 34.0806C52.9609 33.8754 53.0548 33.6518 53.0376 33.4098C53.0224 33.17 52.8971 32.9323 52.6616 32.6968C52.4132 32.4484 52.1604 32.3058 51.9033 32.269C51.6483 32.2301 51.415 32.269 51.2033 32.3857L50.0301 31.0051C50.3974 30.7675 50.7863 30.6335 51.1968 30.6033C51.6094 30.5709 52.0253 30.6454 52.4445 30.8269C52.868 31.0084 53.2785 31.2979 53.676 31.6954C53.9525 31.972 54.1848 32.269 54.3728 32.5866C54.5629 32.9064 54.6882 33.2326 54.7487 33.5654C54.8114 33.9002 54.793 34.2319 54.6936 34.5603C54.5964 34.8865 54.3998 35.1976 54.1038 35.4936L50.7463 38.8511L49.437 37.5418L50.1273 36.8515L50.0884 36.8126C49.8529 36.8883 49.6088 36.9185 49.356 36.9034C49.1054 36.8861 48.8526 36.817 48.5977 36.696C48.3449 36.5728 48.0953 36.3881 47.849 36.1418ZM49.1972 35.5844C49.4003 35.7875 49.6196 35.9268 49.8551 36.0024C50.0927 36.0759 50.325 36.0878 50.5519 36.0381C50.7787 35.9884 50.9796 35.876 51.1547 35.701L51.6829 35.1728C51.6116 35.1577 51.5263 35.1242 51.4269 35.0723C51.3318 35.0205 51.2281 34.9578 51.1158 34.8844C51.0056 34.8087 50.8965 34.732 50.7884 34.6543C50.6826 34.5743 50.5864 34.5019 50.5 34.4371C50.3142 34.2989 50.1349 34.1952 49.962 34.126C49.7892 34.0569 49.625 34.0331 49.4694 34.0547C49.316 34.0742 49.1745 34.1487 49.0449 34.2783C48.8569 34.4663 48.7813 34.678 48.818 34.9135C48.8591 35.149 48.9855 35.3726 49.1972 35.5844ZM59.8351 34.6656L53.198 41.3028L51.8174 39.9222L58.4546 33.285L59.8351 34.6656ZM56.4752 44.7745C55.9632 44.2624 55.6261 43.718 55.4641 43.1411C55.3064 42.5643 55.3194 41.9852 55.503 41.404C55.6888 40.8207 56.0442 40.2665 56.5692 39.7415C57.0813 39.2295 57.63 38.8795 58.2156 38.6915C58.8011 38.5035 59.3822 38.4819 59.9591 38.6267C60.5381 38.7736 61.0718 39.0912 61.5601 39.5795C61.8885 39.9079 62.1412 40.2665 62.3184 40.6554C62.4999 41.0443 62.5917 41.4494 62.5939 41.8707C62.5982 42.2942 62.501 42.7241 62.3022 43.1606C62.1056 43.5948 61.7956 44.0237 61.3721 44.4472L60.9929 44.8263L56.7896 40.623L57.6452 39.7674L60.5489 42.6712C60.7477 42.4724 60.8806 42.2531 60.9475 42.0133C61.0145 41.7735 61.0145 41.5337 60.9475 41.2939C60.8849 41.054 60.7531 40.8337 60.5522 40.6327C60.3426 40.4232 60.1082 40.286 59.8489 40.2212C59.594 40.1563 59.3401 40.1596 59.0873 40.2309C58.8367 40.3 58.612 40.4318 58.4132 40.6263L57.5998 41.4397C57.3535 41.686 57.1861 41.9442 57.0975 42.2142C57.0111 42.4865 57.0035 42.7555 57.0748 43.0212C57.1461 43.287 57.2973 43.5354 57.5285 43.7666C57.6819 43.92 57.8439 44.0388 58.0146 44.1231C58.1853 44.2073 58.3592 44.2516 58.5364 44.256C58.7136 44.2603 58.8886 44.2235 59.0614 44.1458L60.254 45.5069C59.8824 45.7489 59.4816 45.8839 59.0517 45.912C58.6261 45.9401 58.1918 45.8602 57.7489 45.6722C57.3103 45.4842 56.8857 45.185 56.4752 44.7745ZM64.0166 46.3657L61.1388 49.2435L59.7582 47.863L64.736 42.8851L66.0518 44.2009L65.1736 45.0791L65.2319 45.1375C65.6316 44.9581 66.0453 44.9138 66.4731 45.0046C66.9031 45.0932 67.3028 45.3222 67.6722 45.6916C68.0179 46.0373 68.2437 46.4143 68.3495 46.8227C68.4554 47.231 68.4392 47.6469 68.3009 48.0704C68.1648 48.4917 67.9034 48.8957 67.5167 49.2824L64.3472 52.4519L62.9666 51.0714L65.8898 48.1482C66.1966 47.8457 66.3564 47.5302 66.3694 47.2018C66.3845 46.8713 66.2538 46.5677 65.9773 46.2912C65.7915 46.1054 65.5873 45.9811 65.3648 45.9185C65.1444 45.858 64.9175 45.8645 64.6842 45.9379C64.4552 46.0114 64.2326 46.154 64.0166 46.3657ZM67.1885 55.4554C66.8104 55.0773 66.5652 54.6376 66.4529 54.1364C66.3448 53.6351 66.3913 53.1047 66.5922 52.5451C66.7975 51.9855 67.1777 51.4281 67.733 50.8729C68.3034 50.3025 68.8694 49.9201 69.4312 49.7256C69.9951 49.529 70.5233 49.489 71.0159 49.6057C71.5128 49.7224 71.9439 49.9633 72.309 50.3284C72.5877 50.6071 72.7724 50.8869 72.8632 51.1678C72.9582 51.4486 72.9928 51.7166 72.9669 51.9715C72.9453 52.2264 72.8977 52.4511 72.8243 52.6456L72.8664 52.6877L75.3618 50.1923L76.7392 51.5696L70.102 58.2068L68.7409 56.8457L69.5381 56.0484L69.4798 55.9901C69.2767 56.0636 69.0477 56.1089 68.7927 56.1262C68.5421 56.1435 68.2785 56.1024 68.002 56.0031C67.7276 55.9058 67.4564 55.7233 67.1885 55.4554ZM68.7247 54.7942C68.9472 55.0168 69.1957 55.1442 69.4701 55.1767C69.7488 55.2091 70.0394 55.1561 70.3418 55.0179C70.6465 54.8817 70.9468 54.6657 71.2428 54.3697C71.5388 54.0737 71.7548 53.7755 71.8909 53.4752C72.027 53.1749 72.0767 52.8876 72.04 52.6132C72.0033 52.3388 71.8736 52.0903 71.6511 51.8678C71.4243 51.6409 71.1715 51.5113 70.8928 51.4789C70.6141 51.4465 70.3256 51.4994 70.0275 51.6377C69.7293 51.776 69.4366 51.9888 69.1492 52.2761C68.8597 52.5656 68.6436 52.8616 68.5011 53.1641C68.3628 53.4666 68.3077 53.7572 68.3358 54.0359C68.3682 54.3146 68.4978 54.5674 68.7247 54.7942ZM79.2548 54.0853L72.6177 60.7225L71.2371 59.3419L77.8743 52.7047L79.2548 54.0853ZM72.7092 64.5474C72.5342 64.3724 72.3841 64.1942 72.2588 64.0127C72.1334 63.8355 72.0416 63.6767 71.9833 63.5363L73.325 62.8168C73.4373 63.0286 73.5562 63.2014 73.6815 63.3354C73.8089 63.4715 73.9526 63.5547 74.1125 63.5849C74.2745 63.6173 74.4636 63.586 74.6796 63.4909L74.9713 63.3613L78.3061 56.4551L79.758 57.907L77.1329 62.5932L77.1848 62.6451L81.8807 60.0298L83.3423 61.4914L75.8917 65.0724C75.5309 65.2474 75.1712 65.3544 74.8125 65.3933C74.4539 65.4365 74.0995 65.3911 73.7495 65.2572C73.3974 65.1254 73.0506 64.8888 72.7092 64.5474Z" fill="white"/>
</g>
</g>
<defs>
<filter id="filter0_d_1_373" x="-7.33105" y="-31.51" width="151.538" height="150.404" filterUnits="userSpaceOnUse" color-interpolation-filters="sRGB">
<feFlood flood-opacity="0" result="BackgroundImageFix"/>
<feColorMatrix in="SourceAlpha" type="matrix" values="0 0 0 0 0 0 0 0 0 0 0 0 0 0 0 0 0 0 127 0" result="hardAlpha"/>
<feOffset dy="2"/>
<feGaussianBlur stdDeviation="2"/>
<feComposite in2="hardAlpha" operator="out"/>
<feColorMatrix type="matrix" values="0 0 0 0 0 0 0 0 0 0 0 0 0 0 0 0 0 0 0.2 0"/>
<feBlend mode="normal" in2="BackgroundImageFix" result="effect1_dropShadow_1_373"/>
<feBlend mode="normal" in="SourceGraphic" in2="effect1_dropShadow_1_373" result="shape"/>
</filter>
<clipPath id="clip0_1_373">
<rect width="105" height="105" fill="white"/>
</clipPath>
</defs>
</svg>
