<svg width="187" height="163" viewBox="0 0 187 163" fill="none" xmlns="http://www.w3.org/2000/svg">
<g clip-path="url(#clip0_1_44)">
<g clip-path="url(#clip1_1_44)">
<g clip-path="url(#clip2_1_44)">
<mask id="mask0_1_44" style="mask-type:luminance" maskUnits="userSpaceOnUse" x="0" y="0" width="187" height="162">
<path d="M0.830078 0.0032196H186.27V161.997H0.830078V0.0032196Z" fill="white"/>
</mask>
<g mask="url(#mask0_1_44)">
<path d="M0.830078 0.0032196H186.27V161.997H0.830078V0.0032196Z" fill="white"/>
<path d="M92.6495 143.446L148.493 156.781C153.839 158.057 158.046 152.259 155.18 147.597L108.197 71.177C107.775 70.4796 107.22 69.873 106.562 69.3925C105.904 68.9119 105.157 68.5669 104.365 68.3777C103.572 68.1885 102.75 68.1587 101.946 68.2902C101.142 68.4217 100.372 68.7118 99.6813 69.1436L15.6941 120.78C14.9971 121.202 14.3909 121.758 13.9107 122.416C13.4305 123.074 13.086 123.821 12.8972 124.613C12.7084 125.405 12.679 126.227 12.8108 127.031C12.9426 127.835 13.2329 128.605 13.6649 129.295L60.6484 205.717C63.5142 210.377 70.5865 209.241 71.8611 203.893L85.1701 148.044C86.0483 144.8 89.3585 142.765 92.6495 143.446Z" fill="#FFA600"/>
<path d="M133.16 90.1473C129.067 88.3771 124.205 90.3029 122.435 94.3954C120.665 98.4878 115.803 100.415 111.709 98.6445L85.4546 87.29C81.3622 85.5198 79.4353 80.6568 81.2055 76.5644C82.9757 72.4719 81.0499 67.6089 76.9564 65.8387C72.8639 64.0695 70.9381 59.2065 72.7083 55.1141L84.0628 28.8594C85.8767 24.6667 90.6949 22.84 94.7885 24.6102C98.8809 26.3794 103.743 24.4546 105.513 20.3611C107.283 16.2686 112.046 14.2991 116.239 16.112L142.493 27.4675C146.587 29.2367 148.513 34.0997 146.743 38.1921C144.972 42.2846 146.898 47.1476 150.992 48.9178C155.084 50.688 157.011 55.55 155.241 59.6435L143.885 85.8982C142.115 89.9906 137.253 91.9175 133.16 90.1473Z" stroke="#8247F5" stroke-width="4.26299" stroke-miterlimit="10"/>
<mask id="mask1_1_44" style="mask-type:alpha" maskUnits="userSpaceOnUse" x="12" y="68" width="145" height="141">
<path d="M92.6495 143.445L148.493 156.78C153.839 158.057 158.046 152.258 155.18 147.596L108.197 71.1759C107.775 70.4786 107.22 69.872 106.562 69.3914C105.904 68.9108 105.157 68.5659 104.365 68.3766C103.572 68.1874 102.75 68.1577 101.946 68.2892C101.142 68.4206 100.372 68.7107 99.6813 69.1425L15.6941 120.779C14.9971 121.201 14.3909 121.757 13.9107 122.415C13.4305 123.073 13.086 123.82 12.8972 124.612C12.7084 125.404 12.679 126.226 12.8108 127.03C12.9426 127.834 13.2329 128.604 13.6649 129.294L60.6484 205.716C63.5142 210.376 70.5865 209.24 71.8611 203.892L85.1701 148.043C86.0483 144.8 89.3585 142.764 92.6495 143.445Z" fill="#FEA521"/>
</mask>
<g mask="url(#mask1_1_44)">
<path d="M133.16 90.1462C129.067 88.376 124.205 90.3018 122.435 94.3954C120.665 98.4878 115.803 100.414 111.709 98.6434L85.4546 87.289C81.3622 85.5188 79.4353 80.6568 81.2055 76.5633C82.9757 72.4708 81.0499 67.6089 76.9564 65.8387C72.8639 64.0685 70.9381 59.2055 72.7083 55.113L84.0628 28.8583C85.8767 24.6657 90.6949 22.839 94.7885 24.6092C98.8809 26.3794 103.743 24.4536 105.513 20.36C107.283 16.2676 112.046 14.2981 116.239 16.1109L142.493 27.4664C146.587 29.2367 148.513 34.0986 146.743 38.1921C144.972 42.2846 146.898 47.1465 150.992 48.9167C155.084 50.6869 157.011 55.5489 155.241 59.6424L143.885 85.8971C142.115 89.9896 137.253 91.9164 133.16 90.1462Z" stroke="#BFB0FF" stroke-width="6.39448" stroke-miterlimit="10"/>
</g>
</g>
</g>
</g>
</g>
<defs>
<clipPath id="clip0_1_44">
<rect width="185.44" height="162.405" fill="white" transform="translate(0.830078)"/>
</clipPath>
<clipPath id="clip1_1_44">
<rect width="185.44" height="162" fill="white" transform="translate(0.830078)"/>
</clipPath>
<clipPath id="clip2_1_44">
<rect width="185.44" height="161.994" fill="white" transform="translate(0.830078 0.0032196)"/>
</clipPath>
</defs>
</svg>
