<svg width="17" height="17" viewBox="0 0 17 17" fill="none" xmlns="http://www.w3.org/2000/svg">
<g clip-path="url(#clip0_1_133)">
<path d="M15.9259 5.90503C15.78 5.35295 15.4701 4.94409 14.9962 4.67847C14.5222 4.41284 14.0353 4.35295 13.5353 4.49878L13.0353 4.60815L12.129 1.2019L11.629 1.40503C11.379 1.45711 11.1498 1.57951 10.9415 1.77222C10.7332 1.96492 10.53 2.20711 10.3321 2.49878C10.1759 2.70711 9.95713 2.96753 9.67588 3.28003C9.39463 3.59253 9.05088 3.92065 8.64463 4.2644C8.23838 4.60815 7.77484 4.9467 7.254 5.28003C6.73317 5.60295 6.16025 5.87899 5.53525 6.10815C5.48317 6.05607 5.43109 6.00399 5.379 5.9519C5.32692 5.89982 5.27484 5.85295 5.22275 5.81128C5.129 5.7592 5.02744 5.72795 4.91806 5.71753C4.80869 5.70711 4.68109 5.7019 4.53525 5.7019L1.22275 6.60815C0.774835 6.75399 0.480565 7.14461 0.33994 7.78003C0.199315 8.41545 0.22796 9.15503 0.425877 9.99878C0.530044 10.3529 0.657648 10.6915 0.80869 11.0144C0.959731 11.3373 1.13421 11.6029 1.33213 11.8113C1.63421 12.2071 1.92067 12.4337 2.1915 12.491C2.46234 12.5483 2.67588 12.5509 2.83213 12.4988L3.83213 14.905C3.92588 15.0509 4.04567 15.1707 4.1915 15.2644C4.33734 15.3582 4.48317 15.405 4.629 15.405C4.68109 15.405 4.71494 15.405 4.73056 15.405C4.74619 15.405 4.78004 15.405 4.83213 15.405L6.03525 15.1082C6.129 15.0561 6.22275 14.9962 6.3165 14.9285C6.41025 14.8608 6.48317 14.754 6.53525 14.6082C6.57692 14.504 6.59775 14.4024 6.59775 14.3035C6.59775 14.2045 6.57692 14.1029 6.53525 13.9988L5.53525 11.7019L6.129 11.6082C6.23317 11.5561 6.33473 11.5014 6.43369 11.4441C6.53265 11.3868 6.629 11.3061 6.72275 11.2019C6.72275 11.1498 6.74098 11.1029 6.77744 11.0613C6.8139 11.0196 6.83213 10.9988 6.83213 10.9988C7.47796 10.8529 8.11338 10.7904 8.73838 10.8113C9.36338 10.8217 9.9415 10.8764 10.4728 10.9753C11.004 11.0743 11.4728 11.1967 11.879 11.3425C12.2853 11.4884 12.603 11.6082 12.8321 11.7019C13.03 11.8582 13.228 11.9649 13.4259 12.0222C13.6238 12.0795 13.8269 12.1082 14.0353 12.1082C14.129 12.1082 14.2045 12.1029 14.2618 12.0925C14.3191 12.0821 14.3738 12.0509 14.4259 11.9988L14.9259 11.905L14.0353 8.49878L14.5353 8.40503C15.0353 8.2592 15.4311 7.94409 15.7228 7.45972C16.0144 6.97534 16.0821 6.45711 15.9259 5.90503ZM4.22275 11.1082L5.53525 14.2019L4.72275 14.405L3.42588 11.3113L2.629 11.4988C2.629 11.4988 2.58734 11.4753 2.504 11.4285C2.42067 11.3816 2.32692 11.3061 2.22275 11.2019C2.07692 11.004 1.94931 10.78 1.83994 10.53C1.73056 10.28 1.629 10.004 1.53525 9.7019C1.28525 9.05607 1.1915 8.54565 1.254 8.17065C1.3165 7.79565 1.37379 7.60815 1.42588 7.60815L4.72275 6.7019L5.83213 10.7019L4.22275 11.1082ZM13.2228 10.8113C12.9728 10.7071 12.6811 10.5977 12.3478 10.4832C12.0144 10.3686 11.6498 10.2592 11.254 10.155C10.8582 10.0509 10.4311 9.96753 9.97275 9.90503C9.51442 9.84253 9.03525 9.81128 8.53525 9.81128C8.23317 9.81128 7.91546 9.83211 7.58213 9.87378C7.24879 9.91545 6.93109 9.95711 6.629 9.99878L6.42588 8.99878L5.92588 6.99878C6.60296 6.78003 7.21754 6.49878 7.76963 6.15503C8.32171 5.81128 8.8165 5.4519 9.254 5.0769C9.6915 4.7019 10.0717 4.33211 10.3946 3.96753C10.728 3.60295 11.004 3.28003 11.2228 2.99878V2.90503C11.2748 2.85295 11.3087 2.80347 11.3243 2.75659C11.3399 2.70972 11.3738 2.66024 11.4259 2.60815L13.629 10.905C13.5769 10.905 13.5092 10.8998 13.4259 10.8894C13.3425 10.879 13.2748 10.8529 13.2228 10.8113Z" fill="#1A1A1A"/>
</g>
<defs>
<clipPath id="clip0_1_133">
<rect width="16" height="16" fill="white" transform="matrix(1 0 0 -1 0.339966 16.405)"/>
</clipPath>
</defs>
</svg>
