<svg width="134" height="32" viewBox="0 0 134 32" fill="none" xmlns="http://www.w3.org/2000/svg">
<g clip-path="url(#clip0_1_534)">
<g clip-path="url(#clip1_1_534)">
<g clip-path="url(#clip2_1_534)">
<path d="M19.1914 18.151C18.286 18.9397 17.1579 19.9197 15.1034 19.9197H13.8784C12.3932 19.9197 11.0434 19.3923 10.0774 18.4322C9.13353 17.4942 8.6132 16.2132 8.6132 14.8202V13.174C8.6132 11.781 9.13353 10.4977 10.0774 9.56083C11.0434 8.60183 12.3932 8.07217 13.8772 8.07217H15.1034C17.1579 8.07217 18.286 9.0545 19.1914 9.84084C20.1317 10.6587 20.9449 11.3657 23.1079 11.3657C23.4427 11.3657 23.7729 11.3388 24.0937 11.2875L24.0855 11.2688C23.9556 10.9532 23.8036 10.6472 23.6305 10.353L22.1839 7.89484C20.8574 5.63967 18.4039 4.25134 15.7509 4.25134H12.8575C10.2034 4.25134 7.75103 5.64084 6.42336 7.89484L4.9767 10.353C4.32513 11.4567 3.98145 12.7149 3.98145 13.9965C3.98145 15.2781 4.32513 16.5363 4.9767 17.64L6.42336 20.0982C7.74986 22.3533 10.2034 23.7417 12.8575 23.7417H15.7509C18.4039 23.7417 20.8562 22.3522 22.1839 20.0982L23.6305 17.64C23.8055 17.3425 23.9572 17.0368 24.0855 16.7242L24.0925 16.7055C23.7668 16.6541 23.4376 16.6284 23.1079 16.6285C20.9449 16.6285 20.1329 17.3332 19.1914 18.151Z" fill="#006BFF"/>
<path d="M15.104 9.56433H13.8778C11.6191 9.56433 10.1328 11.1475 10.1328 13.1728V14.8202C10.1328 16.8455 11.618 18.4287 13.8778 18.4287H15.1028C18.3951 18.4287 18.1373 15.1363 23.1061 15.1363C23.5833 15.1363 24.0535 15.1783 24.512 15.2623C24.6628 14.4252 24.6628 13.5678 24.512 12.7307C24.0485 12.8149 23.5784 12.8571 23.1073 12.8567C18.1373 12.8567 18.3951 9.56433 15.104 9.56433Z" fill="#006BFF"/>
<path d="M27.3665 16.4652C26.5167 15.856 25.5412 15.445 24.5117 15.2623L24.507 15.2857C24.4179 15.7716 24.2787 16.2471 24.0917 16.7043C24.9424 16.8327 25.7511 17.1588 26.453 17.6563C26.4495 17.6633 26.4483 17.6715 26.446 17.6797C26.0482 18.944 25.4494 20.136 24.6727 21.21C23.8998 22.279 22.965 23.221 21.9018 24.0018C19.6898 25.6321 17.0115 26.5067 14.2637 26.4962C12.544 26.4962 10.8745 26.1648 9.30417 25.5138C7.79403 24.8895 6.41835 23.98 5.25233 22.8352C4.09159 21.7009 3.1638 20.3506 2.52117 18.8603C1.85806 17.3243 1.51736 15.6684 1.52017 13.9953C1.52017 12.306 1.85733 10.6692 2.52117 9.12917C3.16382 7.6389 4.09161 6.28863 5.25233 5.15433C6.41835 4.00947 7.79403 3.10001 9.30417 2.47567C10.8762 1.82382 12.5618 1.48994 14.2637 1.49333C17.0438 1.49333 19.6852 2.3555 21.9018 3.9865C22.9659 4.76715 23.9015 5.7091 24.675 6.77833C25.4513 7.85239 26.0497 9.04441 26.4472 10.3087L26.4542 10.332C25.7529 10.8299 24.9444 11.156 24.094 11.284C24.2807 11.746 24.4207 12.222 24.5082 12.7038L24.5117 12.7272C25.5417 12.5443 26.5176 12.1329 27.3677 11.5232C28.1808 10.9328 28.0245 10.2655 27.9008 9.87C26.1065 4.15333 20.6792 0 14.2648 0C6.38633 0.00116667 0 6.26617 0 13.9942C0 21.721 6.38633 27.986 14.2637 27.986C20.6803 27.986 26.1053 23.8327 27.8997 18.116C28.0233 17.7228 28.1808 17.0567 27.3665 16.4652Z" fill="#006BFF"/>
<path d="M24.0916 11.2863C23.7655 11.3377 23.4359 11.3635 23.1058 11.3633C20.944 11.3633 20.1308 10.6575 19.1916 9.83967C18.2851 9.05217 17.157 8.071 15.1036 8.071H13.8775C12.3923 8.071 11.0425 8.5995 10.0765 9.55967C9.13264 10.4965 8.6123 11.7798 8.6123 13.1717V14.819C8.6123 16.2108 9.13264 17.4942 10.0765 18.431C11.0425 19.3912 12.3923 19.9185 13.8775 19.9185H15.1025C17.1581 19.9185 18.2851 18.9385 19.1916 18.1498C20.132 17.3332 20.944 16.6262 23.1058 16.6262C23.443 16.6262 23.7708 16.653 24.0928 16.7032C24.2806 16.2435 24.4195 15.7675 24.507 15.2857L24.5116 15.2623C24.0479 15.1772 23.5773 15.1342 23.1058 15.134C18.1358 15.134 18.3948 18.4275 15.1025 18.4275H13.8775C11.6176 18.4275 10.1325 16.8455 10.1325 14.819V13.1705C10.1325 11.1452 11.6176 9.562 13.8775 9.562H15.1025C18.3948 9.562 18.1358 12.8543 23.1058 12.8543C23.583 12.8543 24.0531 12.8123 24.5116 12.7283L24.507 12.705C24.4184 12.219 24.2784 11.7436 24.0916 11.2863Z" fill="#0AE8F0"/>
<path d="M24.0916 11.2863C23.7655 11.3377 23.4359 11.3635 23.1058 11.3633C20.944 11.3633 20.1308 10.6575 19.1916 9.83967C18.2851 9.05217 17.157 8.071 15.1036 8.071H13.8775C12.3923 8.071 11.0425 8.5995 10.0765 9.55967C9.13264 10.4965 8.6123 11.7798 8.6123 13.1717V14.819C8.6123 16.2108 9.13264 17.4942 10.0765 18.431C11.0425 19.3912 12.3923 19.9185 13.8775 19.9185H15.1025C17.1581 19.9185 18.2851 18.9385 19.1916 18.1498C20.132 17.3332 20.944 16.6262 23.1058 16.6262C23.443 16.6262 23.7708 16.653 24.0928 16.7032C24.2806 16.2435 24.4195 15.7675 24.507 15.2857L24.5116 15.2623C24.0479 15.1772 23.5773 15.1342 23.1058 15.134C18.1358 15.134 18.3948 18.4275 15.1025 18.4275H13.8775C11.6176 18.4275 10.1325 16.8455 10.1325 14.819V13.1705C10.1325 11.1452 11.6176 9.562 13.8775 9.562H15.1025C18.3948 9.562 18.1358 12.8543 23.1058 12.8543C23.583 12.8543 24.0531 12.8123 24.5116 12.7283L24.507 12.705C24.4184 12.219 24.2784 11.7436 24.0916 11.2863Z" fill="#0AE8F0"/>
</g>
</g>
</g>
<g clip-path="url(#clip3_1_534)">
<g clip-path="url(#clip4_1_534)">
<g clip-path="url(#clip5_1_534)">
<path d="M79.7553 12.6265C81.812 12.6265 83.7595 13.8846 84.1705 16.603H75.0114C75.3947 14.2176 77.1779 12.6265 79.7553 12.6265ZM83.8778 20.6248C83.1783 21.7152 81.8262 22.5539 79.9751 22.5539C77.4244 22.5539 75.4769 21.1557 75.0114 18.6873H86.5022C86.5577 18.3335 86.5857 17.976 86.5861 17.6179C86.5861 13.7789 83.9021 10.3778 79.757 10.3778C75.4794 10.3778 72.5723 13.5315 72.5723 17.5911C72.5723 21.7009 75.5079 24.8043 79.9214 24.8043C82.6641 24.8043 84.7484 23.5697 85.9545 21.7009L83.8778 20.6248Z" fill="#006BFF"/>
<path d="M71.443 4.42688H69.0576V24.447H71.443V4.42688Z" fill="#006BFF"/>
<path d="M99.8593 16.0277V24.4462H97.473V16.1644C97.473 13.9157 96.1847 12.6542 94.0727 12.6542C91.8786 12.6542 90.0962 13.9434 90.0962 17.1793V24.4462H87.71V10.736H90.0962V12.7104C91.1111 11.0924 92.6192 10.3795 94.5416 10.3795C97.7498 10.3795 99.8618 12.5183 99.8618 16.0293" fill="#006BFF"/>
<path d="M113.015 17.5902C113.015 14.793 110.903 12.681 108.134 12.681C105.391 12.681 103.28 14.793 103.28 17.5902C103.28 20.3875 105.391 22.4994 108.134 22.4994C110.901 22.4994 113.015 20.3875 113.015 17.5902ZM115.401 4.42688V24.447H113.015V22.0876C111.918 23.7651 110.163 24.8035 107.832 24.8035C104.02 24.8035 100.894 21.6489 100.894 17.5902C100.894 13.5315 104.02 10.377 107.832 10.377C110.163 10.377 111.918 11.4187 113.015 13.092V4.42688H115.401Z" fill="#006BFF"/>
<path d="M119.71 4.42688H117.324V24.447H119.71V4.42688Z" fill="#006BFF"/>
<path d="M64.8042 17.5902C64.8042 14.793 62.6931 12.681 59.9227 12.681C57.1808 12.681 55.0689 14.793 55.0689 17.5902C55.0689 20.3874 57.1808 22.4994 59.9227 22.4994C62.6906 22.4994 64.8042 20.3874 64.8042 17.5902ZM67.1905 10.7359V24.4461H64.8042V22.0876C63.7071 23.7651 61.9525 24.8035 59.6216 24.8035C55.8095 24.8035 52.6826 21.6489 52.6826 17.5902C52.6826 13.5315 55.8095 10.377 59.6216 10.377C61.9525 10.377 63.7071 11.4187 64.8042 13.092V10.7359H67.1905Z" fill="#006BFF"/>
<path d="M49.1441 21.8075C47.9228 22.2581 46.6045 22.3798 45.3214 22.1603C44.0382 21.9408 42.8353 21.3878 41.8333 20.5567C40.8313 19.7257 40.0653 18.6458 39.6123 17.4254C39.1592 16.205 39.035 14.8869 39.252 13.6033C39.469 12.3198 40.0196 11.1158 40.8487 10.1121C41.6778 9.10849 42.7561 8.34044 43.9757 7.88499C45.1952 7.42955 46.513 7.30271 47.797 7.51721C49.081 7.73171 50.2861 8.28001 51.2913 9.10711C51.7105 9.45298 52.0898 9.84459 52.422 10.2747L54.4861 8.7649C53.2836 7.19283 51.6414 6.01316 49.7676 5.37544C47.8939 4.73772 45.873 4.67065 43.9611 5.18273C42.0493 5.69481 40.3324 6.76299 39.0283 8.25187C37.7241 9.74075 36.8914 11.5833 36.6356 13.546C36.3798 15.5087 36.7125 17.5031 37.5914 19.2765C38.4704 21.0499 39.8561 22.5225 41.5728 23.5075C43.2896 24.4925 45.2602 24.9457 47.2347 24.8095C49.2093 24.6733 51.0991 23.954 52.6644 22.7427L51.2905 20.5703C50.6487 21.099 49.9233 21.5171 49.1441 21.8075Z" fill="#006BFF"/>
<path d="M131.225 10.736V18.5179C131.225 21.0341 129.762 22.6278 127.527 22.6278C125.293 22.6278 123.675 21.0341 123.675 18.5179V10.736H121.261V18.2847C121.261 22.2403 123.726 24.8085 127.527 24.8085C130.815 24.8085 131.328 22.7284 131.328 22.6764V25.4762C131.328 28.2499 130.121 29.8167 127.604 29.8167C126.705 29.8211 125.835 29.4986 125.156 28.9091C124.477 28.3197 124.036 27.5035 123.914 26.6127L121.756 27.3675C122.065 28.6873 122.811 29.8636 123.874 30.7047C124.937 31.5459 126.253 32.0025 127.608 32C131.512 32 133.647 29.4309 133.647 25.4762V10.736H131.225Z" fill="#006BFF"/>
</g>
</g>
</g>
<defs>
<clipPath id="clip0_1_534">
<rect width="28" height="28" fill="white"/>
</clipPath>
<clipPath id="clip1_1_534">
<rect width="28" height="28" fill="white"/>
</clipPath>
<clipPath id="clip2_1_534">
<rect width="28" height="28" fill="white"/>
</clipPath>
<clipPath id="clip3_1_534">
<rect width="98" height="28" fill="white" transform="translate(36 4)"/>
</clipPath>
<clipPath id="clip4_1_534">
<rect width="98" height="28" fill="white" transform="translate(36 4)"/>
</clipPath>
<clipPath id="clip5_1_534">
<rect width="98" height="28" fill="white" transform="translate(36 4)"/>
</clipPath>
</defs>
</svg>
