<svg width="16" height="16" viewBox="0 0 16 16" fill="none" xmlns="http://www.w3.org/2000/svg">
<path d="M8 8.00012C7.44772 8.00012 7 8.44784 7 9.00012V11.0001C7 11.5524 7.44772 12.0001 8 12.0001C8.55229 12.0001 9 11.5524 9 11.0001V9.00012C9 8.44784 8.55229 8.00012 8 8.00012Z" fill="#1A1A1A"/>
<path fill-rule="evenodd" clip-rule="evenodd" d="M9.34136 1.44734C8.78857 0.341771 7.21086 0.341773 6.65808 1.44734L4.55251 5.65849L2.26898 4.51672C1.20572 3.9851 -0.0239436 4.84253 0.107332 6.02401L0.906997 13.221C1.01954 14.2339 1.87567 15.0001 2.89476 15.0001H13.1047C14.1238 15.0001 14.9799 14.2339 15.0924 13.221L15.8921 6.02401C16.0234 4.84253 14.7937 3.9851 13.7305 4.51672L11.4469 5.65849L9.34136 1.44734ZM5.44693 8.34177L7.99972 3.2362L10.5525 8.34177L13.8028 6.7166L13.1047 13.0001H2.89476L2.19659 6.7166L5.44693 8.34177Z" fill="#1A1A1A"/>
</svg>
