<svg width="16" height="16" viewBox="0 0 16 16" fill="none" xmlns="http://www.w3.org/2000/svg">
<g clip-path="url(#clip0_1_600)">
<path d="M4 10C4 9.44772 4.44772 9 5 9C5.55228 9 6 9.44772 6 10V12C6 12.5523 5.55228 13 5 13C4.44772 13 4 12.5523 4 12V10Z" fill="#1A1A1A"/>
<path d="M7 7C7 6.44772 7.44772 6 8 6C8.55228 6 9 6.44772 9 7V12C9 12.5523 8.55228 13 8 13C7.44772 13 7 12.5523 7 12V7Z" fill="#1A1A1A"/>
<path d="M10 5C10 4.44772 10.4477 4 11 4C11.5523 4 12 4.44772 12 5V12C12 12.5523 11.5523 13 11 13C10.4477 13 10 12.5523 10 12V5Z" fill="#1A1A1A"/>
<path fill-rule="evenodd" clip-rule="evenodd" d="M3 2C2.44772 2 2 2.44772 2 3V13C2 13.5523 2.44772 14 3 14H13C13.5523 14 14 13.5523 14 13V3C14 2.44772 13.5523 2 13 2H3ZM0 3C0 1.34315 1.34315 0 3 0H13C14.6569 0 16 1.34315 16 3V13C16 14.6569 14.6569 16 13 16H3C1.34315 16 0 14.6569 0 13V3Z" fill="#1A1A1A"/>
</g>
<defs>
<clipPath id="clip0_1_600">
<rect width="16" height="16" fill="white"/>
</clipPath>
</defs>
</svg>
