<svg width="16" height="16" viewBox="0 0 16 16" fill="none" xmlns="http://www.w3.org/2000/svg">
<g clip-path="url(#clip0_1_579)">
<path fill-rule="evenodd" clip-rule="evenodd" d="M4 1C4 0.447715 4.44772 0 5 0C5.55228 0 6 0.447715 6 1H11C11 0.447715 11.4477 0 12 0C12.5523 0 13 0.447715 13 1C14.6569 1 16 2.34315 16 4V13C16 14.6569 14.6569 16 13 16H11C10.4477 16 10 15.5523 10 15C10 14.4477 10.4477 14 11 14H13C13.5523 14 14 13.5523 14 13V7H2V13C2 13.5523 2.44772 14 3 14H5C5.55228 14 6 14.4477 6 15C6 15.5523 5.55228 16 5 16H3C1.34315 16 0 14.6569 0 13V4C0 2.34315 1.34315 1 3 1H4ZM3 3C2.44772 3 2 3.44772 2 4V5H14V4C14 3.44772 13.5523 3 13 3H3Z" fill="#0060E6"/>
<path d="M4 10C4 9.44772 4.44772 9 5 9C5.55228 9 6 9.44772 6 10C6 10.5523 5.55228 11 5 11C4.44772 11 4 10.5523 4 10Z" fill="#0060E6"/>
<path d="M8 9C7.44772 9 7 9.44772 7 10C7 10.5523 7.44772 11 8 11C8.55228 11 9 10.5523 9 10C9 9.44772 8.55228 9 8 9Z" fill="#0060E6"/>
<path d="M10 10C10 9.44772 10.4477 9 11 9C11.5523 9 12 9.44772 12 10C12 10.5523 11.5523 11 11 11C10.4477 11 10 10.5523 10 10Z" fill="#0060E6"/>
</g>
<defs>
<clipPath id="clip0_1_579">
<rect width="16" height="16" fill="white"/>
</clipPath>
</defs>
</svg>
